<svg xmlns="http://www.w3.org/2000/svg" width="888" height="200" viewBox="0 0 888 200">
  <path fill="none" d="M311.721 154.013h223.446v33.703H311.721z"/>
  <path fill="#88C0D0" d="M333.715 141.045h1.38l22.451 31.697h.092v-31.697h.92v32.848h-1.38l-22.45-31.697h-.092v31.697h-.92v-32.848zM373 149.693c6.901 0 10.627 5.936 10.627 12.375 0 6.486-3.726 12.375-10.673 12.375-6.901 0-10.627-5.889-10.627-12.375 0-6.439 3.726-12.375 10.673-12.375zm0 23.83c6.303 0 9.707-5.475 9.707-11.455 0-5.889-3.404-11.455-9.707-11.455-6.395 0-9.753 5.566-9.753 11.455 0 5.981 3.358 11.455 9.753 11.455zm15.363.37h-.92v-23.646h.92v5.842h.092c.874-3.496 3.634-6.578 9.293-6.395v.92c-6.487-.322-9.385 4.738-9.385 9.891v13.388zm29.396-32.848h.92v32.848h-.92v-6.625h-.092c-1.196 4.141-4.646 7.176-9.477 7.176-6.257 0-10.075-5.197-10.075-12.328 0-6.625 3.542-12.422 10.075-12.422 5.015 0 8.373 2.898 9.477 7.178h.092v-15.827zm-9.57 9.568c-6.487 0-9.155 6.027-9.155 11.502 0 6.072 3.037 11.408 9.155 11.408 6.073 0 9.569-5.289 9.569-11.408.001-7.314-3.818-11.502-9.569-11.502z"/>
  <path fill="#2E3440" d="M437.536 141.045h4.601l11.364 28.799 11.317-28.799h4.601v32.848h-3.128v-28.385h-.092l-11.227 28.385h-2.944l-11.271-28.385h-.092v28.385h-3.128v-32.848zm37.904 0h2.898v4.646h-2.898v-4.646zm0 9.109h2.898v23.738h-2.898v-23.738zm8.418 0h2.898v4.094h.092c1.058-2.852 4.232-4.785 7.59-4.785 6.672 0 8.695 3.496 8.695 9.156v15.273h-2.898v-14.814c0-4.094-1.334-7.176-6.026-7.176-4.601 0-7.36 3.496-7.452 8.143v13.848h-2.898v-23.739zm29.348 0h4.83v2.438h-4.83v16.01c0 1.887.275 2.99 2.346 3.129.828 0 1.656-.047 2.484-.139v2.484c-.873 0-1.701.092-2.576.092-3.864 0-5.198-1.287-5.152-5.336v-16.24h-4.141v-2.438h4.141v-7.131h2.898v7.131zm13.615 0h4.83v2.438h-4.83v16.01c0 1.887.275 2.99 2.346 3.129.828 0 1.656-.047 2.484-.139v2.484c-.873 0-1.701.092-2.576.092-3.863 0-5.197-1.287-5.152-5.336v-16.24h-4.141v-2.438h4.141v-7.131h2.898v7.131zm6.346 0h3.084l7.82 20.242 7.314-20.242h2.898l-10.305 27.373c-1.656 4.002-2.623 5.152-6.258 5.152-1.15-.047-1.748-.047-2.207-.23v-2.438c.689.137 1.334.229 1.979.229 2.576 0 3.174-1.518 4.139-3.727l1.014-2.713-9.478-23.646z"/>
  <g fill="#2E3440">
    <path d="M466.56 123.049l-43.392-55.546v-15.41l48.091 62.171h25.844V26.718h-43.464l-9.397-9.398h62.257v105.729z"/>
    <path d="M421.439 17.32l43.394 55.541v15.41l-48.092-62.168h-25.843v87.545h43.463l9.401 9.401H381.5V17.32z"/>
  </g>
</svg>
